<svg preserveAspectRatio="none" overflow="visible" style="display: block;" width="16" height="16" viewBox="0 0 16 16" fill="none" xmlns="http://www.w3.org/2000/svg">
<g id="lifebuoy-line (1) 1">
<path id="Vector" d="M8 1.33333C11.6819 1.33333 14.6667 4.3181 14.6667 8C14.6667 11.6819 11.6819 14.6667 8 14.6667C4.3181 14.6667 1.33333 11.6819 1.33333 8C1.33333 4.3181 4.3181 1.33333 8 1.33333ZM8 11.3333C7.57 11.3333 7.15907 11.2519 6.78167 11.1037L5.29069 12.5949C6.08471 13.0641 7.01093 13.3333 8 13.3333C8.98907 13.3333 9.91527 13.0641 10.7093 12.5949L9.21833 11.1037C8.84093 11.2519 8.43 11.3333 8 11.3333ZM2.66667 8C2.66667 8.98907 2.93591 9.91527 3.4051 10.7093L4.89634 9.21833C4.74809 8.84093 4.66667 8.43 4.66667 8C4.66667 7.57 4.74809 7.15907 4.89634 6.78167L3.4051 5.29069C2.93591 6.08471 2.66667 7.01093 2.66667 8ZM12.5949 5.29069L11.1037 6.78167C11.2519 7.15907 11.3333 7.57 11.3333 8C11.3333 8.43 11.2519 8.84093 11.1037 9.21833L12.5949 10.7093C13.0641 9.91527 13.3333 8.98907 13.3333 8C13.3333 7.01093 13.0641 6.08471 12.5949 5.29069ZM8 6C6.8954 6 6 6.8954 6 8C6 9.1046 6.8954 10 8 10C9.1046 10 10 9.1046 10 8C10 6.8954 9.1046 6 8 6ZM8 2.66667C7.01093 2.66667 6.08471 2.93591 5.29069 3.4051L6.78167 4.89634C7.15907 4.74809 7.57 4.66667 8 4.66667C8.43 4.66667 8.84093 4.74809 9.21833 4.89634L10.7093 3.4051C9.91527 2.93591 8.98907 2.66667 8 2.66667Z" fill="#FCDF03"/>
</g>
</svg>
